<mxfile host="app.diagrams.net" modified="2021-04-17T10:00:57.510Z" agent="5.0 (Windows)" etag="V0KOXZzaBS25THcsVrrB" version="14.6.1" type="github">
  <diagram id="ky918N-3rujnzzDEFhuE" name="Page-1">
    <mxGraphModel dx="1178" dy="1834" grid="1" gridSize="10" guides="1" tooltips="1" connect="1" arrows="1" fold="1" page="1" pageScale="1" pageWidth="827" pageHeight="1169" math="0" shadow="0">
      <root>
        <mxCell id="0" />
        <mxCell id="1" parent="0" />
        <mxCell id="feyX4JLSk9dq7nyA62vH-1" value="" style="ellipse;html=1;shape=startState;fillColor=#000000;strokeColor=#ff0000;" vertex="1" parent="1">
          <mxGeometry x="370" y="80" width="30" height="30" as="geometry" />
        </mxCell>
        <mxCell id="feyX4JLSk9dq7nyA62vH-2" value="" style="edgeStyle=orthogonalEdgeStyle;html=1;verticalAlign=bottom;endArrow=open;endSize=8;strokeColor=#ff0000;" edge="1" source="feyX4JLSk9dq7nyA62vH-1" parent="1">
          <mxGeometry relative="1" as="geometry">
            <mxPoint x="385" y="170" as="targetPoint" />
          </mxGeometry>
        </mxCell>
        <mxCell id="feyX4JLSk9dq7nyA62vH-3" value="Page Admin" style="shape=umlActor;verticalLabelPosition=bottom;verticalAlign=top;html=1;" vertex="1" parent="1">
          <mxGeometry x="370" y="-10" width="30" height="60" as="geometry" />
        </mxCell>
        <mxCell id="feyX4JLSk9dq7nyA62vH-4" value="Opens Administration Page" style="rounded=1;whiteSpace=wrap;html=1;arcSize=40;fontColor=#000000;fillColor=#ffffc0;strokeColor=#ff0000;" vertex="1" parent="1">
          <mxGeometry x="325" y="170" width="120" height="40" as="geometry" />
        </mxCell>
        <mxCell id="feyX4JLSk9dq7nyA62vH-5" value="" style="edgeStyle=orthogonalEdgeStyle;html=1;verticalAlign=bottom;endArrow=open;endSize=8;strokeColor=#ff0000;" edge="1" source="feyX4JLSk9dq7nyA62vH-4" parent="1">
          <mxGeometry relative="1" as="geometry">
            <mxPoint x="385" y="270" as="targetPoint" />
          </mxGeometry>
        </mxCell>
        <mxCell id="feyX4JLSk9dq7nyA62vH-6" value="Crawling process currently running?" style="rhombus;whiteSpace=wrap;html=1;fillColor=#ffffc0;strokeColor=#ff0000;" vertex="1" parent="1">
          <mxGeometry x="325" y="370" width="120" height="40" as="geometry" />
        </mxCell>
        <mxCell id="feyX4JLSk9dq7nyA62vH-7" value="no" style="edgeStyle=orthogonalEdgeStyle;html=1;align=left;verticalAlign=bottom;endArrow=open;endSize=8;strokeColor=#ff0000;entryX=0;entryY=0.5;entryDx=0;entryDy=0;" edge="1" source="feyX4JLSk9dq7nyA62vH-6" parent="1" target="feyX4JLSk9dq7nyA62vH-9">
          <mxGeometry x="-1" relative="1" as="geometry">
            <mxPoint x="545" y="390" as="targetPoint" />
          </mxGeometry>
        </mxCell>
        <mxCell id="feyX4JLSk9dq7nyA62vH-8" value="yes" style="edgeStyle=orthogonalEdgeStyle;html=1;align=left;verticalAlign=top;endArrow=open;endSize=8;strokeColor=#ff0000;" edge="1" source="feyX4JLSk9dq7nyA62vH-6" parent="1">
          <mxGeometry x="-1" relative="1" as="geometry">
            <mxPoint x="385" y="470" as="targetPoint" />
          </mxGeometry>
        </mxCell>
        <mxCell id="feyX4JLSk9dq7nyA62vH-9" value="Can see status of latest crawling process" style="rounded=1;whiteSpace=wrap;html=1;arcSize=40;fontColor=#000000;fillColor=#ffffc0;strokeColor=#ff0000;" vertex="1" parent="1">
          <mxGeometry x="550" y="370" width="120" height="40" as="geometry" />
        </mxCell>
        <mxCell id="feyX4JLSk9dq7nyA62vH-10" value="" style="edgeStyle=orthogonalEdgeStyle;html=1;verticalAlign=bottom;endArrow=open;endSize=8;strokeColor=#ff0000;" edge="1" source="feyX4JLSk9dq7nyA62vH-9" parent="1">
          <mxGeometry relative="1" as="geometry">
            <mxPoint x="610" y="470" as="targetPoint" />
          </mxGeometry>
        </mxCell>
        <mxCell id="feyX4JLSk9dq7nyA62vH-11" value="" style="ellipse;html=1;shape=endState;fillColor=#000000;strokeColor=#ff0000;" vertex="1" parent="1">
          <mxGeometry x="595" y="470" width="30" height="30" as="geometry" />
        </mxCell>
        <mxCell id="feyX4JLSk9dq7nyA62vH-12" value="Can see status of currently running crawling status" style="rounded=1;whiteSpace=wrap;html=1;arcSize=40;fontColor=#000000;fillColor=#ffffc0;strokeColor=#ff0000;" vertex="1" parent="1">
          <mxGeometry x="325" y="470" width="120" height="40" as="geometry" />
        </mxCell>
        <mxCell id="feyX4JLSk9dq7nyA62vH-13" value="" style="edgeStyle=orthogonalEdgeStyle;html=1;verticalAlign=bottom;endArrow=open;endSize=8;strokeColor=#ff0000;entryX=0.5;entryY=0;entryDx=0;entryDy=0;" edge="1" source="feyX4JLSk9dq7nyA62vH-12" parent="1" target="feyX4JLSk9dq7nyA62vH-14">
          <mxGeometry relative="1" as="geometry">
            <mxPoint x="384" y="578" as="targetPoint" />
          </mxGeometry>
        </mxCell>
        <mxCell id="feyX4JLSk9dq7nyA62vH-14" value="" style="ellipse;html=1;shape=endState;fillColor=#000000;strokeColor=#ff0000;" vertex="1" parent="1">
          <mxGeometry x="370" y="580" width="30" height="30" as="geometry" />
        </mxCell>
        <mxCell id="feyX4JLSk9dq7nyA62vH-15" value="Logs in with admin credentials" style="rounded=1;whiteSpace=wrap;html=1;arcSize=40;fontColor=#000000;fillColor=#ffffc0;strokeColor=#ff0000;" vertex="1" parent="1">
          <mxGeometry x="325" y="270" width="120" height="40" as="geometry" />
        </mxCell>
        <mxCell id="feyX4JLSk9dq7nyA62vH-16" value="" style="edgeStyle=orthogonalEdgeStyle;html=1;verticalAlign=bottom;endArrow=open;endSize=8;strokeColor=#ff0000;" edge="1" source="feyX4JLSk9dq7nyA62vH-15" parent="1">
          <mxGeometry relative="1" as="geometry">
            <mxPoint x="385" y="370" as="targetPoint" />
          </mxGeometry>
        </mxCell>
      </root>
    </mxGraphModel>
  </diagram>
</mxfile>
